<?xml version="1.0" standalone="no"?>
<!DOCTYPE svg PUBLIC "-//W3C//DTD SVG 20010904//EN"
 "http://www.w3.org/TR/2001/REC-SVG-20010904/DTD/svg10.dtd">
<svg version="1.0" xmlns="http://www.w3.org/2000/svg"
 width="500.000000pt" height="500.000000pt" viewBox="0 0 500.000000 500.000000"
 preserveAspectRatio="xMidYMid meet">
<metadata>
Created by potrace 1.14, written by Peter Selinger 2001-2017
</metadata>
<g transform="translate(0.000000,500.000000) scale(0.100000,-0.100000)"
fill="#000000" stroke="none">
<path d="M2397 3954 c-1 -1 -41 -4 -88 -7 -547 -38 -1041 -407 -1239 -927
-117 -306 -127 -650 -29 -957 75 -236 185 -412 368 -592 124 -122 115 -114
211 -178 253 -170 559 -255 865 -240 120 6 148 9 240 28 415 81 805 383 994
768 64 129 86 187 115 306 72 291 50 604 -64 887 -58 145 -48 139 -117 66
-108 -114 -143 -155 -143 -169 0 -8 12 -50 25 -94 14 -44 28 -96 31 -115 3
-19 9 -55 14 -78 13 -71 4 -309 -14 -387 -56 -241 -159 -428 -324 -591 -305
-302 -747 -410 -1157 -283 -416 128 -740 502 -803 929 -11 74 -7 341 6 400 92
411 362 725 748 871 156 59 405 82 578 53 146 -24 309 -85 429 -161 33 -20 44
-23 61 -14 17 9 108 77 171 129 6 4 20 15 32 23 22 15 22 16 -40 61 -162 118
-382 211 -591 249 -50 9 -273 27 -279 23z"/>
<path d="M3838 3760 c-130 -65 -222 -119 -348 -203 -124 -83 -311 -221 -360
-267 -9 -8 -40 -35 -70 -60 -177 -148 -466 -447 -602 -622 -33 -43 -63 -78
-67 -78 -3 0 -66 62 -139 138 -331 341 -351 359 -388 366 -41 8 -97 -15 -157
-67 -29 -24 -41 -43 -46 -74 -9 -48 -13 -39 166 -373 60 -113 113 -212 116
-220 4 -8 20 -37 35 -65 15 -27 72 -133 126 -235 171 -320 153 -293 209 -322
31 -15 52 -19 94 -15 71 7 109 37 153 124 19 37 56 105 82 151 26 46 48 85 48
88 0 26 382 621 462 719 5 6 34 44 65 85 178 237 432 510 708 760 90 82 107
108 99 149 -7 33 -46 71 -73 71 -9 0 -60 -22 -113 -50z"/>
</g>
</svg>
